<svg xmlns="http://www.w3.org/2000/svg" width="48" height="32" viewBox="0 0 48 32" shape-rendering="crispEdges"><path fill="#151219" d="M2 7h10v4h11v2h12v10H23v2H12v4H2v-7h8v-4H3v-5h7v-2H2z"/><path fill="#ede5dd" d="M12 11h11v3h11v7H23v2H12z"/><rect x="13" y="14" width="10" height="7" fill="#a32f59"/><path fill="#302a35" d="M3 8h9v4H3zm0 15h9v5H3z"/><path fill="#700018" d="M33 8h7v3h5v3h3v9h-5v4h-9v-5h-3v-7h3z"/><rect x="36" y="11" width="5" height="4" fill="#ff5575"/><rect x="41" y="15" width="4" height="3" fill="#f3d8c5"/><rect x="34" y="23" width="3" height="3" fill="#e9d3c4"/><rect x="45" y="25" width="2" height="2" fill="#a8002b"/></svg>
