<svg xmlns="http://www.w3.org/2000/svg" width="192" height="8" viewBox="0 0 192 8" shape-rendering="crispEdges">
  <!-- 0: gray concrete -->
  <rect x="0" y="0" width="8" height="8" fill="#3a3740"/>
  <rect x="1" y="1" width="1" height="1" fill="#48444e"/><rect x="6" y="5" width="1" height="1" fill="#302d36"/>
  <!-- 1: wood -->
  <rect x="8" y="0" width="8" height="8" fill="#593728"/>
  <rect x="8" y="1" width="8" height="1" fill="#76452f"/><rect x="8" y="4" width="8" height="1" fill="#3f291f"/><rect x="12" y="0" width="1" height="4" fill="#4a2d22"/>
  <!-- 2: red carpet -->
  <rect x="16" y="0" width="8" height="8" fill="#6f2030"/>
  <rect x="16" y="0" width="1" height="8" fill="#b54a55"/><rect x="23" y="0" width="1" height="8" fill="#3a1522"/><rect x="19" y="3" width="2" height="2" fill="#8e2c3b"/>
  <!-- 3: solid wall -->
  <rect x="24" y="0" width="8" height="8" fill="#17131b"/>
  <rect x="24" y="0" width="8" height="2" fill="#786777"/><rect x="25" y="2" width="6" height="5" fill="#403443"/><rect x="24" y="7" width="8" height="1" fill="#09080c"/>
  <!-- 4: window wall -->
  <rect x="32" y="0" width="8" height="8" fill="#17131b"/>
  <rect x="32" y="0" width="8" height="1" fill="#786777"/><rect x="33" y="2" width="6" height="4" fill="#4ac2cf"/><rect x="35" y="2" width="1" height="4" fill="#c8f4ef"/><rect x="32" y="7" width="8" height="1" fill="#09080c"/>
  <!-- 5: dark tile -->
  <rect x="40" y="0" width="8" height="8" fill="#26212c"/>
  <rect x="40" y="0" width="8" height="1" fill="#332d39"/><rect x="40" y="4" width="8" height="1" fill="#1e1a24"/><rect x="44" y="0" width="1" height="8" fill="#1f1b25"/>
  <!-- 6: grass -->
  <rect x="48" y="0" width="8" height="8" fill="#263b29"/>
  <rect x="49" y="2" width="1" height="2" fill="#3c6040"/><rect x="54" y="5" width="1" height="2" fill="#17291d"/><rect x="52" y="1" width="1" height="1" fill="#52704c"/>
  <!-- 7: stairwell -->
  <rect x="56" y="0" width="8" height="8" fill="#28232d"/>
  <rect x="56" y="1" width="8" height="1" fill="#8a7180"/><rect x="56" y="3" width="8" height="1" fill="#725b6a"/><rect x="56" y="5" width="8" height="1" fill="#594653"/><rect x="56" y="7" width="8" height="1" fill="#342a34"/>
  <!-- 8: green checker -->
  <rect x="64" y="0" width="8" height="8" fill="#17151c"/><rect x="64" y="0" width="4" height="4" fill="#647f57"/><rect x="68" y="4" width="4" height="4" fill="#647f57"/><rect x="65" y="1" width="1" height="1" fill="#82966d"/><rect x="69" y="5" width="1" height="1" fill="#82966d"/>
  <!-- 9: black teal planks -->
  <rect x="72" y="0" width="8" height="8" fill="#071914"/><rect x="72" y="1" width="8" height="1" fill="#0c2820"/><rect x="72" y="4" width="8" height="1" fill="#04100d"/><rect x="76" y="0" width="1" height="4" fill="#102e26"/>
  <!-- 10: teal carpet -->
  <rect x="80" y="0" width="8" height="8" fill="#164b3b"/><rect x="81" y="2" width="1" height="1" fill="#2d7255"/><rect x="85" y="5" width="2" height="1" fill="#0d342b"/><rect x="83" y="7" width="1" height="1" fill="#4a8062"/>
  <!-- 11: cream corridor -->
  <rect x="88" y="0" width="8" height="8" fill="#c18e70"/><rect x="89" y="1" width="1" height="1" fill="#e1b093"/><rect x="93" y="4" width="1" height="1" fill="#9b664f"/><rect x="88" y="7" width="8" height="1" fill="#a97158"/>
  <!-- 12: magenta stage -->
  <rect x="96" y="0" width="8" height="8" fill="#c91672"/><rect x="96" y="0" width="8" height="1" fill="#ec2b92"/><rect x="97" y="4" width="6" height="1" fill="#b30d60"/><rect x="102" y="2" width="1" height="1" fill="#f04da3"/>
  <!-- 13: red brick -->
  <rect x="104" y="0" width="8" height="8" fill="#562321"/><rect x="104" y="2" width="8" height="1" fill="#2b1517"/><rect x="104" y="5" width="8" height="1" fill="#2b1517"/><rect x="108" y="0" width="1" height="2" fill="#7b342c"/><rect x="106" y="3" width="1" height="2" fill="#7b342c"/>
  <!-- 14: bathroom tile -->
  <rect x="112" y="0" width="8" height="8" fill="#335963"/><rect x="112" y="3" width="8" height="1" fill="#182f38"/><rect x="115" y="0" width="1" height="8" fill="#182f38"/><rect x="116" y="1" width="2" height="1" fill="#5c8990"/>
  <!-- 15: bright wall trim -->
  <rect x="120" y="0" width="8" height="8" fill="#17131b"/><rect x="120" y="0" width="8" height="2" fill="#f0ded0"/><rect x="120" y="2" width="8" height="1" fill="#a57c68"/><rect x="121" y="3" width="6" height="4" fill="#302530"/><rect x="120" y="7" width="8" height="1" fill="#09080c"/>
  <!-- 16: sofa -->
  <rect x="128" y="1" width="8" height="6" fill="#17131b"/><rect x="129" y="2" width="6" height="4" fill="#57d7c1"/><rect x="130" y="3" width="2" height="2" fill="#86f0da"/><rect x="133" y="3" width="2" height="2" fill="#349e91"/>
  <!-- 17: wood table -->
  <rect x="136" y="1" width="8" height="6" fill="#2b1515"/><rect x="137" y="1" width="6" height="5" fill="#9a4e25"/><rect x="138" y="2" width="4" height="1" fill="#d07b3e"/><rect x="137" y="6" width="1" height="2" fill="#43221a"/><rect x="142" y="6" width="1" height="2" fill="#43221a"/>
  <!-- 18: toilet -->
  <rect x="145" y="0" width="6" height="3" fill="#dce8df"/><rect x="146" y="3" width="5" height="4" fill="#eff8ed"/><rect x="147" y="4" width="3" height="2" fill="#7b9ba0"/><rect x="148" y="7" width="2" height="1" fill="#9cb0aa"/>
  <!-- 19: sink -->
  <rect x="152" y="1" width="8" height="6" fill="#e8eee5"/><rect x="154" y="2" width="4" height="3" fill="#6ca4aa"/><rect x="155" y="0" width="2" height="2" fill="#b9d2cc"/><rect x="153" y="7" width="6" height="1" fill="#7d8c88"/>
  <!-- 20: bed -->
  <rect x="160" y="1" width="8" height="6" fill="#37212e"/><rect x="161" y="1" width="6" height="2" fill="#f1d2bd"/><rect x="161" y="3" width="6" height="4" fill="#da8f78"/><rect x="162" y="2" width="2" height="1" fill="#fff0df"/>
  <!-- 21: television -->
  <rect x="168" y="1" width="8" height="6" fill="#111117"/><rect x="169" y="2" width="6" height="4" fill="#37bac2"/><rect x="170" y="3" width="2" height="1" fill="#b9ffff"/><rect x="170" y="7" width="1" height="1" fill="#58505e"/><rect x="173" y="7" width="1" height="1" fill="#58505e"/>
  <!-- 22: vending machine -->
  <rect x="176" y="0" width="8" height="8" fill="#24152b"/><rect x="177" y="1" width="6" height="6" fill="#3ed6a6"/><rect x="178" y="2" width="4" height="2" fill="#d6298a"/><rect x="178" y="5" width="2" height="1" fill="#152528"/><rect x="181" y="5" width="1" height="2" fill="#ffe357"/>
  <!-- 23: debris / plant -->
  <rect x="184" y="5" width="8" height="3" fill="#42231d"/><rect x="187" y="1" width="2" height="5" fill="#3e8b55"/><rect x="185" y="2" width="3" height="2" fill="#62bb70"/><rect x="189" y="0" width="2" height="3" fill="#2f7048"/>
</svg>
