<svg xmlns="http://www.w3.org/2000/svg" width="32" height="32" viewBox="0 0 32 32" shape-rendering="crispEdges">
  <path d="M7 11h5V8h4v3h7v3h5v5h-5v3h-7v3h-4v-3H7z" fill="#15121b"/>
  <rect x="10" y="12" width="12" height="9" fill="#68403d"/>
  <rect x="13" y="13" width="8" height="7" fill="#8d5b4e"/>
  <rect x="7" y="10" width="5" height="4" fill="#15121b"/><rect x="7" y="19" width="5" height="4" fill="#15121b"/>
  <path d="M20 11h6v2h3v7h-3v2h-6z" fill="#15121b"/>
  <rect x="21" y="13" width="6" height="7" fill="#8d5b4e"/>
  <rect x="27" y="15" width="3" height="3" fill="#d7a17f"/><rect x="24" y="13" width="2" height="2" fill="#f1dfb6"/>
  <rect x="4" y="15" width="5" height="3" fill="#15121b"/>
</svg>
